<svg width="267" height="199" viewBox="0 0 267 199" fill="none" xmlns="http://www.w3.org/2000/svg">
<g clip-path="url(#clip0_1_53)">
<path d="M227.651 0.69339C226.003 1.57745 225.461 2.2535 225.607 3.2589C225.753 4.22963 226.608 6.25777 227.755 8.38991C228.256 9.32597 228.778 10.522 228.882 11.0247C229.007 11.5448 229.466 12.7755 229.904 13.7636C232.198 18.8599 233.012 24.2163 232.595 31.9301C232.282 38.2399 231.573 41.8108 229.674 46.9592C228.298 50.7207 227.839 51.7088 226.003 55.037C224.001 58.6253 222.624 60.7921 219.433 65.3511C217.993 67.3965 216.241 69.9447 215.511 71.0194C213.78 73.5849 211.798 75.7517 206.959 80.3454C200.117 86.8458 198.198 88.3366 190.959 92.8436C184.91 96.6225 183.909 97.2985 180.676 99.8294C179.236 100.956 177.317 102.412 176.4 103.088C175.482 103.747 174.063 104.839 173.229 105.498C172.415 106.156 171.226 107.093 170.601 107.595C167.138 110.299 162.132 116.921 161.172 120.041C160.254 123.092 159.983 126.941 160.526 129.662C161.193 133.025 162.591 135.053 165.365 136.596C168.035 138.087 168.473 138.78 168.473 141.363C168.452 143.148 168.431 143.339 167.847 144.223C166.804 145.818 163.655 148.279 160.755 149.77C157.772 151.295 156.375 152.405 155.457 153.93C154.435 155.664 154.205 156.687 153.955 160.24L153.746 163.516L151.89 165.44C149.533 167.885 149.095 168.613 148.448 171.247C148.156 172.426 147.927 173.432 147.927 173.466C147.927 173.501 146.633 174.593 145.048 175.91C142.149 178.32 140 180.643 140 181.388C140 181.874 140.751 182.81 141.481 183.278C142.232 183.728 143.442 183.902 145.945 183.919C148.657 183.919 150.93 183.676 154.059 183.052C158.732 182.099 161.61 182.515 163.133 184.37C164.009 185.427 164.426 186.953 165.657 193.678C165.886 195.013 166.763 196.729 167.639 197.579C169.161 199.069 172.624 199.468 174.251 198.341L174.919 197.873L178.486 197.925L182.073 197.995L183.346 197.457C184.472 196.989 185.453 196.296 186.579 195.204C187.121 194.649 188.227 194.736 189.77 195.446C191.231 196.122 192.169 196.209 193.963 195.81C195.653 195.429 196.884 194.874 197.53 194.181C198.949 192.673 199.866 190.437 199.866 188.426C199.866 187.681 199.929 186.935 199.992 186.779C200.242 186.259 201.243 185.999 202.974 185.999C206.875 185.999 209.337 184.959 210.692 182.723C211.694 181.111 211.819 178.649 211.11 175.217C210.734 173.414 210.692 172.929 210.901 172.548C211.089 172.184 211.235 172.114 211.61 172.201C214.697 172.946 216.408 172.981 218.536 172.392C219.829 172.028 220.309 171.681 220.309 171.143C220.309 170.901 220.58 170.519 220.914 170.259C222.249 169.219 222.853 167.209 222.916 163.638C222.979 160.621 222.937 160.864 223.438 160.864C223.98 160.864 226.504 160.136 230.425 158.836C232.157 158.264 234.222 157.605 235.014 157.397C237.58 156.704 240.167 155.386 244.505 152.561C248.886 149.701 250.638 148.054 252.453 145.09C253.392 143.564 253.433 143.304 253.246 141.016C253.204 140.669 253.538 139.924 254.205 138.849C256.458 135.226 256.583 134.932 257.417 132.002C258.043 129.818 258.356 128.119 258.669 125.415C259.149 121.393 259.316 120.717 261.172 116.314C262.069 114.182 262.57 112.64 262.862 111.114C263.258 109.173 263.425 108.739 264.551 106.832C265.97 104.44 267.409 100.939 268.097 98.2693C268.723 95.8424 268.786 91.3181 268.202 89.6193C267.659 88.0072 266.804 86.5685 265.594 85.3204L264.53 84.2457V76.9825V69.7193L262.173 64.7964C260.859 62.0922 259.378 59.232 258.878 58.4173L257.96 56.9438L257.981 54.6903C258.001 53.4423 258.148 51.4141 258.335 50.1834C258.857 46.7338 258.857 46.4738 258.565 44.983C257.897 41.6721 256.854 38.8639 255.227 35.9864C253.412 32.8142 253.016 32.2075 251.389 30.162C249.47 27.7352 249.345 27.5445 248.928 25.8284C248.344 23.4189 247.113 21.0268 245.82 19.692C245.048 18.9119 244.798 18.4092 243.775 15.6184C243.254 14.1623 242.482 12.3768 242.086 11.6488C239.583 7.08982 231.823 1.52588e-05 229.341 1.52588e-05C229.111 1.52588e-05 228.339 0.312031 227.651 0.69339ZM233.367 8.73659C234.806 9.62065 237.622 12.0128 238.707 13.2609C241.064 15.9997 242.211 19.5013 242.211 23.9563C242.211 26.5218 242.42 27.4058 242.941 27.0418C243.316 26.7818 243.963 25.343 244.297 24.0256C244.505 23.1762 244.589 23.0549 244.756 23.3149C245.694 24.6843 246.696 33.6809 246.195 36.0211C245.757 37.9626 244.067 40.7187 242.19 42.5735C241.648 43.1282 241.126 43.7869 241.043 44.0816C240.793 45.0524 241.251 45.0004 243.316 43.7869C244.401 43.1629 245.361 42.6429 245.444 42.6429C245.84 42.6429 244.86 47.5485 243.588 51.8822C242.878 54.309 241.21 56.2331 237.684 58.6253C236.85 59.18 236.162 59.7347 236.162 59.8214C236.162 60.2547 238.748 59.3533 240.292 58.3999C240.897 58.0012 241.481 57.7412 241.543 57.8105C241.752 57.9839 241.648 59.804 241.397 60.0294C241.293 60.1507 240.208 61.8668 238.999 63.8776C237.789 65.8711 236.621 67.6739 236.412 67.8646C236.224 68.0552 235.453 68.4713 234.702 68.7659C233.221 69.3727 231.76 70.3954 232.178 70.5167C232.324 70.5514 232.887 70.3781 233.45 70.1354C234.764 69.546 235.119 69.546 235.119 70.1874C235.119 71.1928 230.363 78.2652 229.32 78.8373C229.007 78.9933 228.006 79.6 227.067 80.1894C226.024 80.8481 225.044 81.3161 224.439 81.4375C223.458 81.6455 222.29 82.5295 222.457 82.9282C222.603 83.2576 223.896 83.1016 225.774 82.5295C226.796 82.2175 227.693 82.0095 227.818 82.0788C228.173 82.2522 225.961 84.8697 222.895 87.8859C221.018 89.758 221.039 89.7407 218.994 90.4167C217.034 91.0928 216.971 91.0928 216.971 90.7461C216.971 90.6074 216.825 90.4861 216.658 90.4861C216.074 90.4861 215.97 89.914 216.283 87.9726C216.7 85.2511 216.742 79.8947 216.366 79.496C216.095 79.236 216.032 79.236 215.761 79.4613C215.532 79.652 215.386 80.5881 215.198 83.3269C214.969 86.4818 214.864 87.0885 214.364 88.2326C213.133 91.0754 211.61 93.2943 207.751 97.8532C205.415 100.609 196.466 107.509 191.836 110.109C190.813 110.698 189.291 111.547 188.498 111.998C186.767 112.969 185.515 113.454 184.222 113.628C181.01 114.044 178.548 116.106 178.506 118.395C178.486 119.244 178.527 119.348 178.944 119.4C179.278 119.435 179.8 119.14 180.822 118.291C182.866 116.609 183.909 116.332 185.599 117.008C186.767 117.476 188.081 118.707 188.769 119.92C189.27 120.787 189.332 121.116 189.332 122.728C189.332 124.462 189.291 124.618 188.581 125.848C188.143 126.611 187.434 127.478 186.871 127.963C185.911 128.743 185.348 128.986 182.929 129.558C181.614 129.87 181.322 130.199 181.927 130.702C182.407 131.101 183.095 131.135 185.369 130.858C186.6 130.702 187.142 130.702 187.893 130.875C189.145 131.17 190.667 132.332 191.46 133.597C192.253 134.828 192.983 136.839 192.983 137.757C192.983 138.867 190.98 142.056 189.395 143.46L188.79 143.998L186.975 143.495C183.659 142.594 182.97 142.646 182.97 143.859C182.97 144.639 183.784 145.748 185.14 146.806C185.682 147.222 186.35 147.95 186.642 148.435C187.33 149.545 187.831 151.555 187.685 152.509C187.393 154.312 185.87 155.993 183.742 156.877C182.115 157.553 181.218 157.571 180.759 156.912C178.924 154.381 177.735 153.306 177.046 153.514C176.254 153.757 176.42 154.398 177.922 157.016C179.716 160.101 180.133 161.228 180.133 162.944C180.113 164.972 179.174 166.168 177.046 166.845C175.649 167.295 174.96 167.018 172.52 165.094C170.142 163.204 169.599 163.048 169.078 164.088C168.682 164.868 168.807 165.354 169.745 166.619C171.143 168.543 171.748 170.814 171.414 173.05C171.206 174.402 170.622 175.061 168.974 175.737C166.533 176.76 165.302 176.5 164.093 174.714C163.446 173.778 162.904 173.518 162.778 174.09C162.612 174.818 164.698 180.799 165.678 182.394C165.907 182.775 166.199 183.052 166.345 183C166.763 182.896 166.742 181.596 166.304 180.521C165.323 178.199 166.721 179.845 168.41 183C169.975 185.895 170.267 186.276 170.726 186.12C171.206 185.964 171.185 185.323 170.663 183.364C170.142 181.44 170.184 180.695 170.768 181.752C171.727 183.52 173.02 188.166 174.001 193.349L174.46 195.741L173.417 196.625C172.103 197.717 171.414 197.787 170.33 196.903C168.39 195.36 167.743 194.06 167.117 190.489C166.554 187.195 166.116 185.826 164.739 183.226C163.279 180.4 163.216 180.365 160.171 180.365C157.543 180.383 155.478 180.781 153.371 181.666C151.89 182.272 149.533 182.567 145.778 182.602C143.338 182.619 143.066 182.584 142.795 182.272C142.399 181.839 142.566 181.18 143.358 179.915C144.255 178.528 145.674 177.367 147.217 176.795C147.947 176.517 148.677 176.101 148.865 175.876C149.032 175.65 149.324 174.888 149.491 174.177C149.887 172.409 150.284 171.508 151.598 169.202C152.536 167.555 152.933 167.07 154.059 166.168C155.707 164.868 155.853 164.47 155.853 161.401C155.853 156.166 156.688 154.832 161.443 152.405C164.322 150.914 165.323 150.29 166.95 148.955C168.64 147.586 169.829 146.164 170.455 144.778C170.872 143.876 170.914 143.547 170.809 141.103C170.747 138.901 170.642 138.208 170.246 137.255C169.474 135.365 168.16 134.342 166.471 134.342C164.343 134.342 161.881 129.627 162.174 126.108C162.424 123.127 164.885 117.216 166.929 114.685C168.348 112.934 170.517 110.715 172.228 109.294C173.041 108.618 173.834 107.821 174.042 107.526C174.23 107.231 175.252 106.434 176.337 105.775C177.401 105.134 178.84 104.146 179.529 103.591C181.01 102.412 183.408 100.8 191.836 95.3051C199.22 90.4861 201.055 89.2033 204.205 86.6378C207.918 83.6043 212.382 79.0973 216.241 74.4517C218.598 71.6435 224.084 63.7389 226.504 59.7173C229.883 54.1356 232.574 47.4792 234.18 40.8227C235.369 35.8651 235.619 33.993 235.619 29.2953C235.64 25.187 235.619 24.927 234.848 20.9747C233.721 15.133 233.408 14.0583 231.948 10.7647C231.385 9.48197 230.968 8.33789 231.03 8.21655C231.239 7.76586 232.157 7.97387 233.367 8.73659ZM250.492 33.4902C254.455 38.5866 256.708 44.2896 256.166 47.9126C255.728 50.8247 254.414 53.4596 251.723 56.8225C249.47 59.6307 249.887 59.804 253.016 57.3425C253.976 56.5971 254.893 55.9904 255.06 55.9904C255.561 55.9904 255.415 57.6372 254.622 60.8788C253.704 64.6403 252.703 67.2752 251.452 69.3553C250.617 70.7421 250.179 71.2275 248.427 72.6662C247.301 73.5849 246.383 74.417 246.383 74.521C246.383 74.989 247.426 74.6597 249.804 73.4636C250.701 72.9956 251.493 72.6662 251.556 72.7182C251.848 72.9609 249.699 77.7279 248.198 80.1894C247.697 81.0041 245.11 83.0669 241.94 85.1817C240.834 85.9271 239.916 86.6031 239.916 86.6898C239.916 87.0365 241.377 86.8112 242.816 86.2391C243.65 85.9098 244.38 85.6324 244.422 85.6324C244.923 85.6324 242.524 89.7407 240.772 91.8902C239.729 93.1383 239.291 93.4849 236.975 94.889C233.7 96.8478 231.948 98.0959 232.115 98.3213C232.198 98.4253 232.741 98.4599 233.408 98.4253C234.347 98.3559 234.618 98.2519 234.952 97.8879C235.327 97.4545 236.162 97.2292 236.162 97.5585C236.162 98.0959 230.071 104.752 228.402 106.035C227.651 106.624 226.504 106.954 225.252 106.954C223.104 106.954 223.187 106.78 226.879 102.811C229.362 100.159 230.738 98.4079 230.738 97.9052C230.738 97.3679 230.384 97.5585 229.257 98.7373C228.652 99.3613 227.589 100.28 226.9 100.765C225.732 101.563 225.628 101.615 225.565 101.268C225.461 100.679 226.692 98.9453 229.049 96.2931C232.365 92.6009 233.429 91.1795 235.974 87.0018C236.412 86.2738 236.892 84.8004 236.725 84.6617C236.495 84.4537 236.162 84.8177 234.41 87.1752C232.261 90.0527 229.278 93.7623 228.298 94.785C227.484 95.6171 227.192 95.6344 226.963 94.9064C226.733 94.2477 227.109 93.5716 229.049 91.0928C232.428 86.7938 237.038 79.5307 239.979 73.897C242.878 68.3499 246.133 59.492 247.217 54.1356C247.614 52.2462 247.614 51.2581 247.217 51.5875C247.113 51.6741 246.696 52.8355 246.299 54.1703C245.903 55.5051 245.423 56.9092 245.256 57.2905L244.944 57.9839V57.2558C244.923 56.8572 245.215 55.6091 245.569 54.4823C245.903 53.3556 246.299 52.0382 246.404 51.5701C247.134 48.4673 248.344 39.7133 248.573 35.9691C248.719 33.3689 248.886 31.7221 249.011 31.7221C249.053 31.7221 249.72 32.5195 250.492 33.4902ZM244.401 59.492C243.88 61.5721 240.521 69.234 238.519 72.9782C236.266 77.1732 231.573 84.6964 229.299 87.7819C228.882 88.3539 228.089 89.5673 227.505 90.4687C226.942 91.3701 226.337 92.1502 226.212 92.1849C226.066 92.2195 225.836 92.0462 225.711 91.8208C225.357 91.1621 225.649 90.6247 228.11 87.5739C233.596 80.6921 238.248 72.7182 242.315 63.1842C243.546 60.3067 244.213 58.9373 244.401 58.9373C244.485 58.9373 244.485 59.1973 244.401 59.492ZM258.773 62.5255C259.441 63.3749 260.651 66.3738 261.214 68.5753C261.443 69.5287 261.694 71.2968 261.756 72.5622C261.86 74.625 261.819 74.9717 261.318 76.6185C260.651 78.8026 259.67 80.7094 258.502 82.1308C257.689 83.1362 257.438 83.7256 257.814 83.7256C257.918 83.7256 258.648 83.3789 259.441 82.9456C261.673 81.7495 261.694 81.7495 260.88 84.8177C260.233 87.3485 258.44 91.4395 256.875 94.0223C256.145 95.2357 252.87 97.9746 251.535 98.5119C250.221 99.032 249.407 99.708 249.595 100.124C249.762 100.505 251.097 100.349 252.557 99.76C254.393 99.0146 254.476 99.1707 253.246 101.06C251.785 103.296 250.117 105.255 248.594 106.538C247.342 107.578 246.737 107.925 244.818 108.687C242.607 109.554 241.794 109.987 241.794 110.265C241.794 110.525 243.15 110.767 244.547 110.767H245.986L245.298 111.565C244.276 112.761 242.065 114.408 240.313 115.309C238.894 116.037 238.143 116.297 236.537 116.574C236.203 116.626 235.953 116.748 235.953 116.852C235.953 117.025 237.956 117.875 238.415 117.875C238.54 117.875 238.665 117.944 238.665 118.013C238.665 118.204 232.595 123.144 231.155 124.132C228.152 126.178 227.755 125.952 229.487 123.162C230.071 122.226 230.53 121.376 230.53 121.255C230.53 121.116 230.863 120.145 231.281 119.053C231.677 117.979 232.198 116.384 232.407 115.5C232.908 113.35 233.304 112.761 235.786 110.334C238.206 107.994 240.626 105.359 241.439 104.163C242.002 103.366 242.19 102.672 241.794 102.88C241.669 102.95 239.854 104.648 237.747 106.676C234.013 110.247 232.824 111.235 232.824 110.715C232.824 110.317 234.868 107.89 238.081 104.51C242.983 99.3267 244.818 97.0212 248.114 91.9595C250.075 88.9433 252.182 85.095 253.454 82.1828C254.998 78.6813 254.789 77.8492 253.162 81.0734C251.201 85.0257 247.321 91.0234 243.775 95.5997C242.545 97.1945 239.27 100.817 237.121 102.967C235.098 104.995 231.635 107.925 231.448 107.786C231.26 107.613 231.886 106.833 235.807 102.447C241.731 95.8424 243.775 93.0689 246.988 87.3659C251.598 79.2013 254.435 72.6315 256.395 65.5591C256.854 63.895 257.334 62.3869 257.459 62.2135C257.772 61.7108 258.21 61.8148 258.773 62.5255ZM264.405 88.9606C265.594 90.9541 265.824 91.9248 265.845 95.3397C265.845 99.3267 265.177 101.285 262.111 106.156C260.421 108.861 259.921 109.398 257.271 111.253C255.895 112.241 255.582 112.848 256.458 112.848C257.105 112.848 258.356 112.137 259.9 110.889C260.588 110.351 261.193 109.901 261.256 109.901C261.402 109.901 260.838 112.362 260.463 113.281C259.128 116.557 255.519 120.787 252.828 122.226C252.244 122.52 250.596 123.162 249.136 123.63C244.944 124.964 244.651 125.588 248.302 125.45L250.325 125.363L249.387 126.923C248.239 128.83 247.259 129.731 245.09 130.893C242.962 132.02 241.877 132.418 240.292 132.626C239.604 132.713 238.748 132.921 238.415 133.06C237.81 133.32 237.81 133.337 238.164 133.666C238.373 133.857 239.082 134.273 239.75 134.585L240.98 135.157L239.353 136.197C237.038 137.688 236.641 137.827 234.201 137.965C231.301 138.139 231.051 138.295 232.219 139.3C232.595 139.629 232.824 139.976 232.762 140.115C232.616 140.427 228.673 142.316 228.173 142.316C227.714 142.316 227.735 142.178 228.256 141.155C228.611 140.479 228.694 139.941 228.736 138.243L228.757 136.18L230.425 135.226C232.741 133.926 235.306 132.158 237.476 130.407C239.353 128.882 240.083 128.033 239.708 127.842C239.395 127.686 238.936 127.946 235.327 130.338C233.471 131.569 231.614 132.713 231.197 132.886C230.759 133.06 229.946 133.476 229.341 133.788C228.214 134.412 227.609 134.429 227.609 133.857C227.609 133.441 228.527 132.73 230.947 131.309C233.888 129.558 236.099 127.929 239.937 124.687C244.985 120.423 247.864 117.615 248.531 116.28C248.698 115.95 249.533 115.084 250.388 114.39C251.994 113.056 253.496 111.201 255.206 108.427C256.333 106.59 256.458 106.26 256.187 105.914C255.853 105.48 255.373 105.896 253.955 107.803C250.888 111.964 243.254 119.643 238.018 123.855C232.991 127.894 225.273 132.557 224.188 132.21C223.417 131.968 223.813 131.638 227.505 129.385C234.389 125.224 243.212 117.493 250.2 109.502C255.081 103.955 258.919 97.5759 262.236 89.4807C262.716 88.3193 263.195 87.3659 263.279 87.3659C263.362 87.3659 263.884 88.0939 264.405 88.9606ZM222.144 94.057C223.104 94.9757 223.291 95.7731 223.166 98.1999C222.895 102.742 221.414 106.278 217.847 110.75C215.991 113.09 215.281 113.697 210.609 116.956C205.248 120.683 201.431 122.971 197.989 124.514C196.508 125.172 193.212 126.195 192.524 126.195C192.128 126.195 192.107 126.126 192.232 125.38C192.482 123.838 193.025 123.439 199.178 120.232C204.184 117.632 206.103 116.453 206.124 115.916C206.145 115.482 204.685 116.037 199.825 118.325C195.11 120.544 192.19 121.827 192.044 121.723C191.898 121.601 191.898 120.752 192.065 120.405C192.128 120.249 192.733 119.885 193.379 119.608C196.904 118.048 204.873 112.206 204.873 111.183C204.873 110.837 204.372 110.889 203.934 111.287C203.725 111.478 203.079 111.86 202.495 112.137C201.911 112.414 200.409 113.281 199.136 114.078C196.007 116.02 192.42 118.031 191.794 118.152C191.523 118.221 191.231 118.204 191.147 118.152C190.793 117.84 191.898 116.939 194.652 115.326C198.969 112.778 201.89 110.819 202.933 109.762C203.663 109.017 203.83 108.722 203.83 108.15V107.439L202.912 108.029C202.411 108.341 200.826 109.398 199.408 110.351C196.529 112.31 192.607 114.581 191.001 115.205C189.854 115.656 188.602 115.76 188.602 115.396C188.602 115.049 189.708 114.252 192.357 112.657C199.595 108.323 206.062 103.262 210.713 98.2866C213.196 95.6344 214.489 94.6117 216.199 93.953C217.618 93.3983 219.85 93.0862 220.83 93.2943C221.185 93.3636 221.769 93.7103 222.144 94.057ZM228.173 111.062C230.092 112.224 230.154 114.824 228.402 119.435C228.068 120.336 227.547 121.411 227.276 121.81C227.004 122.208 226.775 122.694 226.775 122.884C226.775 123.075 226.608 123.37 226.379 123.543C226.17 123.716 225.899 124.132 225.753 124.462C225.628 124.791 225.252 125.224 224.919 125.398C224.585 125.588 223.625 126.386 222.791 127.183C221.81 128.102 220.83 128.83 220.1 129.177C219.474 129.471 217.889 130.303 216.554 131.049C211.861 133.649 208.586 134.862 203.934 135.729C202.328 136.024 200.263 136.422 199.366 136.613C197.155 137.081 195.736 137.099 195.361 136.682C195.194 136.509 195.069 136.128 195.069 135.868C195.069 135.244 195.528 135.018 199.449 133.632C204.998 131.673 207.209 130.581 207.918 129.471C208.586 128.397 207.835 128.553 201.118 130.927C197.238 132.297 195.382 132.765 195.048 132.488C194.693 132.193 196.32 131.205 199.387 129.818C202.808 128.293 205.123 127.027 206.875 125.744C210.108 123.387 209.17 123.11 204.956 125.172C200.179 127.495 193.337 130.199 192.983 129.905C192.545 129.541 193.567 128.951 198.177 126.819C207.71 122.416 215.386 117.424 219.516 112.934C221.247 111.045 222.52 110.577 225.669 110.646C227.234 110.681 227.714 110.767 228.173 111.062ZM257.105 124.392C257.292 125.935 257.105 127.253 256.354 129.835C255.269 133.545 254.205 135.66 252.515 137.411C251.973 137.965 250.346 139.421 248.907 140.635L246.279 142.871L246.758 143.183C247.321 143.564 247.447 143.547 249.449 142.698C250.263 142.351 251.014 142.108 251.076 142.178C251.389 142.438 250.93 143.148 249.574 144.57C247.76 146.459 244.902 148.851 243.567 149.597C241.648 150.689 240.48 150.966 238.081 150.983C235.849 150.983 235.119 151.139 235.119 151.625C235.119 152.006 235.932 152.717 236.391 152.717C237.726 152.717 237.726 153.324 236.391 154.312C235.077 155.3 232.949 156.236 230.363 156.964C229.257 157.276 227.317 157.9 226.045 158.351C224.626 158.871 223.333 159.217 222.645 159.269C221.602 159.339 221.518 159.321 220.83 158.715C219.912 157.9 219.704 157.293 220.225 156.964C220.455 156.825 221.518 156.322 222.624 155.837C223.73 155.369 224.752 154.866 224.877 154.728C225.252 154.364 224.981 154.104 224.251 154.104C223.917 154.104 223.646 154.052 223.646 153.965C223.646 153.896 224.731 153.237 226.045 152.474C227.359 151.729 228.444 151.053 228.444 150.966C228.444 150.706 227.755 150.793 225.211 151.33C222.812 151.85 221.56 151.972 221.56 151.712C221.56 151.642 222.436 151.278 223.5 150.914C229.403 148.869 237.518 144.726 240.459 142.212C242.67 140.34 244.818 138 244.526 137.757C244.276 137.549 244.318 137.532 241.439 139.387C236.621 142.49 229.779 145.766 223.417 148.019C221.372 148.747 220.726 148.869 220.726 148.557C220.726 147.985 223.5 146.65 226.984 145.558C228.152 145.176 229.612 144.535 230.53 143.998C231.385 143.495 233.429 142.368 235.077 141.484C242.962 137.272 248.677 132.661 254.101 126.108C255.811 124.011 256.562 123.248 256.812 123.248C256.896 123.248 257.021 123.768 257.105 124.392ZM221.206 134.082C221.998 134.221 223.02 134.516 223.5 134.724C224.251 135.07 224.418 135.261 224.668 135.989C225.669 138.953 224.668 141.97 221.936 144.154C218.744 146.737 213.988 148.626 209.566 149.059C208.544 149.163 205.457 149.337 202.724 149.441C198.239 149.631 197.614 149.631 196.362 149.371C195.59 149.215 194.172 148.99 193.191 148.903C191.105 148.678 189.979 148.279 189.896 147.742C189.833 147.413 189.937 147.361 190.939 147.274C191.544 147.222 193.88 147.135 196.112 147.101C200.722 146.997 201.785 146.823 204.143 145.852C205.957 145.09 207.751 143.894 207.084 143.876C206.854 143.876 206.208 144.067 205.603 144.292C203.934 144.968 202.036 145.159 197.572 145.176C193.463 145.176 192.566 145.055 192.566 144.5C192.566 143.807 194.464 143.218 198.406 142.663C203.642 141.952 208.627 140.461 208.627 139.612C208.627 139.283 208.544 139.3 205.624 139.889C200.805 140.877 195.215 141.276 194.923 140.635C194.631 139.993 195.361 139.785 201.181 138.849C205.478 138.173 213.091 135.85 216.554 134.169C217.43 133.753 219.12 133.718 221.206 134.082ZM193.88 151.503C196.195 152.041 198.886 152.44 201.431 152.63C204.226 152.838 207.397 153.254 208.502 153.584C212.549 154.728 215.761 156.964 217.451 159.824C218.682 161.887 219.558 164.591 219.37 165.77C219.224 166.793 218.139 169.289 217.618 169.861C217.18 170.329 214.656 171.109 214.009 170.953C213.759 170.901 212.528 170.034 211.256 169.029C207.814 166.272 206.813 165.596 205.957 165.354C205.54 165.232 204.581 164.834 203.851 164.452C203.1 164.088 201.785 163.551 200.93 163.274C196.904 161.991 191.606 159.391 189.896 157.848C188.415 156.513 188.769 156.218 191.022 156.964C192.545 157.467 195.173 157.831 196.216 157.675C197.614 157.449 197.03 157.051 193.692 155.906C191.398 155.109 190.188 154.52 190.375 154.277C190.438 154.19 190.793 154.208 191.168 154.294C192.023 154.502 197.864 154.97 199.574 154.97C200.304 154.97 200.93 154.901 200.993 154.814C201.243 154.485 200.43 154.242 197.614 153.757C194.568 153.254 193.546 152.925 193.191 152.388C193.066 152.18 192.837 152.093 192.586 152.145C192.148 152.232 191.314 151.66 191.314 151.243C191.314 150.897 191.314 150.897 193.88 151.503ZM222.04 154.398C221.894 154.433 221.602 154.433 221.414 154.398C221.206 154.346 221.331 154.312 221.664 154.312C222.019 154.312 222.165 154.346 222.04 154.398ZM219.37 154.797C219.537 155.022 218.953 155.213 218.515 155.074C218.097 154.936 218.327 154.624 218.848 154.624C219.057 154.624 219.307 154.71 219.37 154.797ZM188.477 160.205C190.167 161.02 192.086 162.112 193.984 163.343C194.693 163.811 195.715 164.296 196.258 164.435C196.8 164.574 198.135 165.094 199.241 165.614C200.325 166.116 201.66 166.654 202.182 166.827C203.371 167.174 205.415 168.197 206.145 168.769C209.962 171.785 211.068 178.303 208.377 181.735C207.73 182.55 207.313 182.671 204.247 183.052C202.244 183.295 201.577 183.33 201.41 183.174C201.285 183.052 199.199 180.781 196.8 178.112C193.066 173.969 192.044 172.946 189.896 171.265C187.351 169.271 184.389 166.602 183.45 165.458C182.908 164.799 182.887 164.106 183.388 164.019C183.554 164.002 184.201 164.366 184.806 164.834C186.975 166.55 191.94 168.578 191.94 167.763C191.94 167.642 191.085 166.827 190.021 165.943C188.957 165.059 188.164 164.296 188.227 164.244C188.289 164.192 189.52 164.626 190.939 165.215C193.546 166.29 194.234 166.411 194.234 165.77C194.214 165.284 193.88 165.024 190.897 163.152C187.956 161.332 187.559 161.055 186.746 160.309C186.287 159.859 186.287 159.477 186.788 159.477C186.913 159.477 187.685 159.807 188.477 160.205ZM184.535 169.705C185.995 170.849 187.267 171.785 187.351 171.785C187.539 171.785 191.293 175.581 193.609 178.112C196.153 180.903 198.615 185.184 198.615 186.814C198.615 187.629 197.801 190.003 197.196 190.905C196.529 191.945 194.589 193.453 193.942 193.453C193.337 193.453 189.896 192.482 189.478 192.205C189.02 191.876 188.519 190.835 186.621 186.172C184.034 179.793 183.346 178.545 180.238 174.454C178.006 171.473 177.338 170.467 177.338 169.982C177.338 169.722 178.214 170.363 180.53 172.322C182.532 174.021 184.055 175.165 184.681 175.425C186.516 176.222 186.245 175.408 183.992 173.449C182.365 172.01 182.115 171.369 183.596 172.392C184.097 172.738 185.14 173.293 185.932 173.622C188.477 174.697 188.415 174.385 185.515 171.889C183.2 169.913 181.948 168.699 181.531 168.006C180.989 167.139 181.969 167.694 184.535 169.705ZM181.281 170.693C181.635 171.039 181.865 171.369 181.823 171.421C181.698 171.525 180.697 170.762 180.446 170.346C180.092 169.809 180.613 170.017 181.281 170.693ZM176.671 173.726C177.276 174.281 180.384 178.407 181.197 179.759C181.573 180.383 182.073 181.423 182.303 182.099C182.532 182.758 183.262 184.595 183.93 186.172C184.973 188.686 185.119 189.189 185.119 190.333C185.098 192.604 183.742 194.718 181.99 195.204C181.051 195.464 178.715 195.29 178.048 194.926C177.255 194.493 176.942 193.609 176.191 189.639C175.795 187.594 175.398 185.566 175.273 185.132C174.919 183.832 173.396 180.313 172.415 178.545C171.393 176.656 171.373 176.639 171.79 176.639C172.269 176.639 174.251 178.753 175.732 180.851C176.483 181.926 177.276 182.983 177.463 183.208L177.839 183.642L178.027 183.26C178.486 182.428 177.463 180.157 175.252 177.055C174.668 176.24 174.23 175.477 174.272 175.373C174.376 175.113 175.753 176.587 177.985 179.325C178.986 180.573 180.029 181.752 180.279 181.926L180.738 182.272L180.571 181.839C180.217 180.833 178.903 178.372 177.443 175.945C175.92 173.432 175.753 172.929 176.671 173.726ZM168.118 179.533C167.785 179.793 167.743 179.793 167.618 179.533C167.555 179.377 167.555 179.1 167.618 178.944C167.743 178.684 167.785 178.684 168.118 178.944C168.431 179.221 168.431 179.256 168.118 179.533Z" fill="#EF8254"/>
<path d="M211.973 84.2804C211.744 84.5924 211.264 85.4418 210.888 86.1525C209.783 88.25 208.385 90.2261 206.821 91.8382C206.028 92.6529 205.924 93.1036 206.383 93.4156C206.612 93.589 206.821 93.5716 207.28 93.3636C209.574 92.3756 212.766 87.2099 212.766 84.471C212.766 83.587 212.536 83.535 211.973 84.2804Z" fill="#EF8254"/>
<path d="M183.771 120.995C183.458 121.255 183.375 121.48 183.479 121.827C183.855 123.179 184.021 123.595 184.376 123.976L184.772 124.375L185.315 123.959C185.982 123.439 186.191 122.364 185.815 121.428C185.586 120.839 185.44 120.735 184.877 120.683C184.418 120.648 184.084 120.735 183.771 120.995Z" fill="#EF8254"/>
<path d="M186.566 135.989C186.379 136.371 186.65 137.619 187.067 138.329C187.568 139.161 188.131 139.196 188.965 138.416C189.945 137.48 189.799 136.769 188.485 136.093C187.672 135.66 186.733 135.625 186.566 135.989Z" fill="#EF8254"/>
<path d="M182.457 151.33C181.769 151.781 181.602 152.249 181.915 152.752C182.186 153.202 183.145 154.104 183.354 154.104C183.583 154.104 184.188 152.925 184.313 152.197C184.543 151.036 183.583 150.602 182.457 151.33Z" fill="#EF8254"/>
<path d="M174.134 163.204C173.633 164.106 174.906 165.25 175.761 164.661C176.157 164.383 175.991 163.707 175.386 163.152C174.802 162.65 174.426 162.667 174.134 163.204Z" fill="#EF8254"/>
<path d="M164.706 171.976C164.059 172.6 164.205 172.877 165.185 172.877C166.02 172.877 166.5 172.53 166.416 171.976C166.312 171.265 165.415 171.265 164.706 171.976Z" fill="#EF8254"/>
<path d="M167.084 192.118C167.084 192.777 170.087 195.36 170.838 195.36C171.714 195.36 171.235 194.701 169.378 193.297C167.48 191.893 167.084 191.685 167.084 192.118Z" fill="#EF8254"/>
<path d="M234.355 112.362C233.834 112.865 232.937 113.853 232.353 114.546C231.372 115.76 231.122 116.314 231.518 116.314C231.852 116.314 234.856 113.576 235.273 112.865C236.17 111.409 235.669 111.131 234.355 112.362Z" fill="#EF8254"/>
<path d="M217.167 98.668C217.042 98.98 216.833 99.9681 216.708 100.887C216.333 103.955 215.373 105.914 212.953 108.67C211.535 110.265 211.264 110.767 211.785 110.767C212.119 110.767 214.247 109.571 215.144 108.878C216.687 107.699 218.022 105.186 218.377 102.794C218.836 99.8467 217.939 96.8305 217.167 98.668Z" fill="#EF8254"/>
<path d="M214.789 101.459C214.121 101.892 212.494 105.238 212.828 105.515C213.099 105.723 213.955 104.874 214.726 103.626C215.707 102.048 215.728 100.852 214.789 101.459Z" fill="#EF8254"/>
<path d="M223.946 114.893C223.884 114.98 223.779 115.829 223.696 116.765C223.446 120.024 222.09 122.226 218.377 125.346C216.395 127.01 216.416 127.582 218.419 126.767C220.776 125.779 223.383 122.971 224.593 120.093C225.24 118.568 225.469 115.968 225.031 115.274C224.739 114.824 224.155 114.616 223.946 114.893Z" fill="#EF8254"/>
<path d="M219.315 120.475C218.064 121.706 217.563 122.451 217.834 122.676C218.231 123.006 220.275 121.029 220.838 119.764C221.235 118.88 220.63 119.175 219.315 120.475Z" fill="#EF8254"/>
<path d="M220.379 139.387C218.21 141.588 215.707 143.252 212.661 144.535C211.744 144.916 210.763 145.384 210.471 145.593L209.95 145.939L211.18 145.957C211.848 145.957 213.225 145.801 214.226 145.593C216.479 145.159 217.772 144.466 219.482 142.767C221.089 141.19 221.568 140.323 221.485 139.213L221.422 138.329L220.379 139.387Z" fill="#EF8254"/>
<path d="M215.79 139.785C214.393 140.34 212.974 141.224 212.974 141.536C212.974 141.952 213.871 142.212 214.414 141.987C214.643 141.866 214.852 141.71 214.852 141.623C214.852 141.536 215.477 141.051 216.228 140.566C217.209 139.907 217.522 139.629 217.313 139.525C216.938 139.317 216.979 139.317 215.79 139.785Z" fill="#EF8254"/>
<path d="M213.037 163.291C212.348 163.638 211.514 164.435 211.514 164.765C211.514 164.886 211.639 165.077 211.785 165.181C212.265 165.51 214.226 164.036 214.226 163.36C214.226 162.996 213.663 162.962 213.037 163.291Z" fill="#EF8254"/>
<path d="M215.394 164.574C215.102 164.903 214.142 165.649 213.287 166.238C211.66 167.347 211.452 167.711 212.119 168.214C212.474 168.491 212.557 168.474 213.517 167.919C214.893 167.139 215.644 166.186 215.874 165.025C215.978 164.504 216.041 164.054 215.999 164.019C215.978 164.002 215.707 164.244 215.394 164.574Z" fill="#EF8254"/>
<path d="M206.091 175.425C206.091 177.505 205.84 178.233 204.839 179.117L204.046 179.828L201.856 179.794C200.542 179.776 199.603 179.828 199.52 179.932C199.165 180.418 201.189 181.319 202.753 181.354C203.629 181.371 205.089 180.435 205.736 179.43C206.842 177.765 207.175 174.957 206.383 174.09C206.153 173.813 206.112 174.004 206.091 175.425Z" fill="#EF8254"/>
<path d="M202.691 176.24C202.461 176.431 202.524 177.817 202.774 177.956C203.275 178.216 203.9 177.315 203.817 176.413C203.796 176.119 202.983 175.98 202.691 176.24Z" fill="#EF8254"/>
<path d="M192.574 186.502C191.197 186.693 189.862 187.663 190.384 188.097C190.759 188.409 191.906 188.01 192.908 187.23C193.742 186.571 193.95 186.329 193.638 186.363C193.533 186.381 193.074 186.45 192.574 186.502Z" fill="#EF8254"/>
<path d="M193.784 187.75C192.407 188.755 191.781 188.981 189.945 189.137C189.049 189.206 188.256 189.327 188.193 189.379C187.922 189.588 188.944 190.766 189.633 191.078C191.051 191.702 192.824 191.061 193.909 189.536C194.43 188.807 194.91 187.507 194.785 187.195C194.743 187.126 194.305 187.369 193.784 187.75Z" fill="#EF8254"/>
<path d="M178.723 188.929C178.139 189.362 178.097 189.466 178.327 189.709C178.89 190.264 180.642 189.848 180.642 189.137C180.642 188.322 179.683 188.218 178.723 188.929Z" fill="#EF8254"/>
<path d="M180.016 191.616C177.346 192.396 176.971 192.656 177.701 193.262C178.243 193.713 179.015 193.713 180.121 193.297C181.581 192.76 182.624 191.373 181.685 191.252C181.518 191.234 180.767 191.39 180.016 191.616Z" fill="#EF8254"/>
<path d="M37.5677 0.572184C35.0229 1.64692 29.7872 6.79527 27.0546 10.9209C25.8656 12.7237 24.8644 14.9425 24.5515 16.3986C24.2386 17.924 23.9674 18.4267 22.5281 20.1948C20.7551 22.379 19.9624 23.9738 19.7121 25.9152C19.5244 27.2846 19.2949 27.6833 17.5636 29.6941C16.7501 30.6129 15.9783 31.6703 15.8323 32.0343C15.7071 32.381 15.2691 33.0744 14.8936 33.5597C13.4752 35.3278 12.0776 38.3094 10.8886 42.0363L10.1168 44.4631L10.1377 48.3634C10.1377 51.5356 10.2211 52.3677 10.4714 52.7837C11.3475 54.1878 11.0763 56.4933 9.82477 58.4347C8.86523 59.9255 8.09344 61.3816 5.81977 66.0272L4.17188 69.3901V76.7226V84.0551L3.12891 85.1992C1.79391 86.6726 1.16813 87.6954 0.584063 89.3941C0.166875 90.5729 0.104297 91.1276 0.125156 93.6064C0.125156 96.744 0.417187 98.3041 1.46016 101.182C2.37797 103.66 3.04547 105.099 4.19273 107.041C5.06883 108.514 5.29828 109.121 5.65289 110.924C6.07008 113.038 6.5707 114.46 8.44805 118.915C9.32414 121.012 9.4493 121.48 9.61617 123.508C10.0959 129.159 11.9941 135.591 13.9549 138.104C15.0187 139.491 15.0396 139.543 15.2065 141.831C15.3316 143.651 15.4151 143.946 16.0409 144.934C17.8556 147.829 20.8385 150.724 23.4459 152.128C24.2595 152.578 25.5319 153.341 26.2828 153.844C29.3491 155.872 30.9345 156.496 42.282 160.171C44.6808 160.934 45.682 161.35 45.7446 161.575C45.8072 161.748 45.8072 162.684 45.7446 163.672C45.6195 165.683 45.9949 167.833 46.7041 169.046C47.7263 170.797 48.5815 171.889 49.1447 172.166C50.2294 172.686 52.3988 172.86 55.0062 172.634C56.2995 172.513 57.4259 172.478 57.5093 172.548C57.5927 172.6 57.5302 174.194 57.405 176.084C56.9878 181.891 57.0504 182.22 58.9695 183.936C60.7008 185.479 63.0579 186.155 66.5831 186.173H68.3979L68.523 187.178C69.0654 191.425 69.3157 192.205 70.6298 193.592C72.9244 196.019 75.7821 196.643 78.911 195.395C80.9135 194.58 81.3724 194.632 82.7909 195.845C83.4375 196.4 84.543 197.093 85.2731 197.423L86.5873 197.995L90.1959 197.925L93.7837 197.873L94.4512 198.341C96.0157 199.434 99.6035 199.017 101.085 197.579C102.253 196.417 102.649 195.291 103.358 191.2C103.838 188.513 104.777 185.445 105.444 184.526C106.863 182.498 109.533 182.082 114.768 183.052C118.669 183.763 120.15 183.936 122.549 183.954C125.156 183.971 126.679 183.642 127.576 182.844C128.369 182.151 128.702 181.648 128.702 181.146C128.702 180.366 126.262 177.921 123.341 175.737C122.34 174.992 121.36 174.16 121.13 173.865C120.901 173.57 120.505 172.444 120.254 171.369C119.67 168.89 118.919 167.642 116.583 165.215L114.789 163.326L114.664 160.5C114.539 157.311 114.142 155.716 113.016 153.792C112.14 152.284 110.284 150.724 108.427 149.944C106.675 149.215 104.818 148.054 102.983 146.563C101.043 145.003 100.313 143.72 100.188 141.658C99.9998 139.075 100.5 138.26 103.4 136.492C104.234 135.972 105.215 135.227 105.569 134.811C108.552 131.465 109.282 126.091 107.53 120.371C107.259 119.452 106.758 118.343 106.445 117.892C106.132 117.459 105.59 116.54 105.236 115.864C103.796 113.16 100.354 109.363 96.9544 106.746C85.0228 97.5414 83.8755 96.7093 78.2018 93.1557C70.609 88.4061 67.2715 85.8579 62.453 81.1256C60.9302 79.6522 59.032 77.8147 58.2185 77.052C55.9448 74.9198 54.6724 73.3424 51.9816 69.4075C50.6257 67.414 48.7275 64.6578 47.768 63.2711C46.8084 61.8843 45.8489 60.3762 45.6195 59.8908C45.4109 59.4228 45.0563 58.8681 44.8477 58.6774C44.4722 58.3307 44.0967 57.7413 41.7605 53.4771C40.4255 51.0156 38.1309 45.2258 37.4426 42.4697C37.2548 41.7589 36.8168 39.4535 36.4622 37.356C35.3775 30.8035 35.4401 24.7365 36.6082 19.8308C37.3174 16.9013 38.2352 14.4744 40.8635 8.59806C42.1151 5.82454 43.1789 3.3457 43.2623 3.10302C43.4292 2.49631 42.5114 1.45624 41.1764 0.728195C39.9666 0.0521493 38.8819 0.000145816 37.5677 0.572184ZM37.2548 8.84074C37.1923 9.2221 36.7542 10.4182 36.3162 11.4929C35.1689 14.3184 34.5223 16.6933 33.6462 21.5816C32.9578 25.4645 32.8744 26.2619 32.8744 29.2954C32.8744 31.8436 32.9787 33.369 33.3333 35.4492C35.4192 47.8607 39.6745 57.152 49.2907 70.3782C54.7767 77.9014 57.5302 80.9002 63.2248 85.5632C68.2936 89.6888 71.5059 91.9596 80.8301 97.9747C83.5835 99.7602 86.775 101.91 87.9223 102.759C89.0695 103.591 90.8634 104.839 91.8855 105.498C93.8255 106.763 98.4771 111.01 100.584 113.454C103.275 116.609 105.319 120.735 106.258 124.965C106.696 126.837 106.675 127.426 106.195 128.986C105.152 132.349 103.692 134.342 102.232 134.342C101.356 134.342 100.354 134.707 99.6661 135.279C98.352 136.388 97.747 138.468 97.747 141.97C97.7262 144.31 97.747 144.31 98.4562 145.489C99.9581 147.95 102.211 149.736 107.217 152.457C110.346 154.156 111.034 154.711 111.869 156.184C112.495 157.293 112.515 157.363 112.578 160.431C112.62 162.147 112.703 163.811 112.766 164.14C112.849 164.539 113.287 165.077 114.184 165.874C114.893 166.498 115.79 167.399 116.166 167.85C117.584 169.566 118.836 172.374 119.211 174.593C119.378 175.616 119.921 176.188 121.256 176.76C121.86 177.003 123.008 177.765 123.821 178.441C126.053 180.279 126.742 181.683 125.74 182.255C125.365 182.48 124.656 182.532 122.34 182.532C118.252 182.532 116.333 182.203 112.641 180.886C109.887 179.88 106.404 179.915 105.382 180.92C104.026 182.29 102.753 185.358 101.606 190.125C101.147 192.032 100.563 194.042 100.313 194.58C99.7912 195.741 98.7274 196.799 97.5802 197.284C96.5998 197.7 96.3286 197.613 95.0353 196.348L94.0758 195.412L94.9102 191.72C96.2034 186.034 97.3924 182.238 98.1225 181.406C98.644 180.799 98.6648 181.198 98.1434 182.879C97.3507 185.41 97.4967 186.693 98.4771 185.895C98.6857 185.705 99.5827 184.283 100.438 182.723C101.961 179.95 102.378 179.326 102.566 179.482C102.628 179.534 102.461 180.106 102.211 180.782C101.71 182.116 101.71 183.139 102.211 183.139C103.233 183.139 106.466 174.073 105.59 173.64C105.486 173.57 105.027 174.038 104.589 174.68C103.212 176.639 102.148 176.881 99.6661 175.807C97.8305 175.027 97.309 174.351 97.1004 172.426C96.8709 170.346 97.5384 168.387 99.1029 166.463C99.8747 165.545 99.8538 164.955 99.0612 163.898L98.4145 163.048L96.2869 164.886C93.9089 166.931 93.1371 167.295 91.8021 166.949C90.7591 166.689 89.299 165.631 88.8401 164.782C88.3603 163.898 88.3395 162.355 88.7566 160.951C88.9444 160.379 89.7787 158.715 90.634 157.259C92.0941 154.797 92.1984 154.572 91.9481 154.138C91.5935 153.514 90.7591 153.428 90.1959 153.965C89.9665 154.19 89.3616 154.901 88.8609 155.577C87.7137 157.155 87.2339 157.571 86.6081 157.571C85.3983 157.571 83.1663 156.167 82.0191 154.676C81.289 153.722 80.7258 152.249 80.7258 151.348C80.7258 150.429 81.9982 148.279 83.2706 147.014C85.7529 144.535 86.1492 143.842 85.3774 143.148C84.9394 142.732 84.4805 142.75 82.3737 143.27C79.7871 143.894 79.6411 143.876 78.5355 142.715C77.3257 141.432 75.9907 139.248 75.803 138.243C75.5109 136.579 76.5956 133.892 78.1809 132.436C78.6398 132.002 79.4951 131.43 80.1 131.153C81.2681 130.616 80.9344 130.633 84.9185 130.98C86.1909 131.101 86.9836 130.876 86.9836 130.39C86.9836 130.009 86.4204 129.714 84.8351 129.315C81.6853 128.501 79.9123 126.819 79.2656 123.994C78.8067 122.087 79.5785 119.816 81.1847 118.291C82.2694 117.251 83.3958 116.661 84.251 116.661C85.294 116.661 86.9627 117.511 88.0266 118.551C89.0487 119.556 89.4867 119.747 89.8413 119.331C90.5923 118.481 89.737 116.54 87.9848 115.084C86.6707 113.992 85.6069 113.541 84.3345 113.541C83.4375 113.541 82.9995 113.385 80.7675 112.258C75.7195 109.71 71.2973 106.746 65.6445 102.152C60.2836 97.784 56.2995 92.9477 54.3804 88.4927C53.7546 87.0367 53.6503 86.3953 53.4 82.6164C53.1914 79.5135 52.962 78.8721 52.3362 79.4961C52.1067 79.7215 52.0233 80.5362 51.9816 82.807C51.919 85.3899 51.9607 86.0833 52.357 87.574C52.8577 89.5155 52.7951 90.0009 52.0441 90.4169C51.6061 90.6422 51.3766 90.6596 50.3337 90.4862C48.6023 90.1742 47.7888 89.7928 46.3913 88.5274C43.9924 86.4126 40.5715 82.3563 40.9261 82.079C41.0095 82.0096 41.8648 82.2177 42.8452 82.5123C44.7016 83.1017 46.0992 83.2577 46.2452 82.9284C46.4121 82.5297 45.244 81.6456 44.2845 81.4549C43.7421 81.3336 42.5323 80.7616 41.3433 80.0682C40.2377 79.4095 39.2782 78.8721 39.1948 78.8721C38.8193 78.8721 33.1664 70.8809 33.1664 70.3435C33.1664 69.8408 33.5419 69.8235 35.0646 70.2049C35.8781 70.4129 36.6082 70.5169 36.6708 70.4649C36.9002 70.2915 35.4609 69.3901 34.0216 68.7834C32.8535 68.2981 32.5615 68.0554 31.748 67.0153C30.559 65.4899 27.9307 61.1042 27.3466 59.6655C26.9503 58.7121 26.9295 57.724 27.2841 57.724C27.3466 57.724 27.8681 58.036 28.4522 58.4001C30.0792 59.4401 32.1234 60.1335 32.1234 59.6308C32.1234 59.5441 31.6854 59.1801 31.143 58.8161C27.3049 56.2333 25.9699 54.4998 24.7184 50.4955C23.7797 47.5313 22.8202 42.4697 23.1748 42.4697C23.2582 42.4697 24.0509 42.955 24.9478 43.5444C26.9086 44.8965 27.6804 45.2952 27.8055 45.1045C27.9933 44.8792 27.2006 43.5617 26.2202 42.5043C24.1343 40.2508 22.9662 38.2574 22.3821 35.9692C22.0484 34.6345 22.1109 32.9357 22.6533 28.342C22.987 25.4992 23.0496 25.2738 23.5085 24.0431C23.8423 23.1244 24.4055 22.9163 24.4055 23.7137C24.4055 24.7191 25.7405 27.3886 26.0951 27.094C26.1994 27.0073 26.3663 25.2738 26.4705 23.2284C26.6166 19.8135 26.6791 19.3801 27.2215 18.1147C27.9307 16.4332 29.3909 13.9544 30.4547 12.6543C32.04 10.7302 35.7113 8.14736 36.8794 8.14736C37.3591 8.14736 37.38 8.19936 37.2548 8.84074ZM20.0041 35.6572C20.2545 40.1468 20.7342 44.3244 21.2766 46.6299C21.4852 47.5313 21.7772 48.8834 21.8815 49.6288C22.0066 50.3915 22.549 52.5237 23.0705 54.3785C23.592 56.2332 23.9674 57.8454 23.9257 57.9494C23.7797 58.2961 23.1539 56.8746 22.5073 54.7771C21.7146 52.2116 21.506 51.6569 21.2557 51.6569C20.2753 51.6569 23.3834 62.3003 26.408 69.2168C29.3074 75.8386 34.8977 85.0952 39.904 91.5783C40.7801 92.705 41.5519 93.9011 41.6353 94.2131C41.7605 94.8372 41.5936 95.5132 41.3016 95.5132C40.9261 95.5132 38.7776 93.0864 36.2327 89.7928C34.7934 87.938 33.2707 85.9792 32.8118 85.4592C32.04 84.5405 32.0191 84.5232 31.9566 84.9912C31.9148 85.3205 32.3112 86.2219 33.229 87.7647C34.856 90.5729 36.7125 93.0691 39.6537 96.4666C42.5531 99.8122 43.6795 101.58 42.9286 101.58C42.8034 101.58 41.6562 100.714 40.3838 99.6388C38.7776 98.3041 38.0475 97.784 38.0058 97.9921C37.8598 98.5641 40.1543 101.459 42.1985 103.296C42.9912 104.007 43.9716 104.995 44.3679 105.515C45.3274 106.694 45.1397 106.954 43.2832 106.954C41.4267 106.954 40.6341 106.521 38.4855 104.388C36.2536 102.152 33.3333 98.9108 32.8744 98.1481C32.5406 97.628 32.5406 97.576 32.8744 97.472C33.1247 97.4027 33.375 97.524 33.7088 97.8534C34.0842 98.2521 34.3763 98.3561 35.3149 98.4254C35.9616 98.4601 36.5039 98.4254 36.5873 98.3214C36.7542 98.0961 34.9395 96.8133 31.9566 95.0105C29.3074 93.4157 28.9945 93.1731 27.5135 91.3876C26.3454 89.9835 23.9883 86.3086 23.9883 85.8926C23.9883 85.5286 24.176 85.5632 25.6153 86.1699C26.8877 86.7246 28.7859 87.0367 28.7859 86.7073C28.7859 86.6206 27.889 85.9446 26.7834 85.2165C25.6779 84.5058 23.8631 83.1884 22.7576 82.3043C20.7759 80.7096 20.7342 80.6576 19.4409 78.2654C17.7513 75.1625 16.9378 73.2211 17.209 72.9957C17.355 72.8744 18.0016 73.0824 19.1906 73.6718C20.9637 74.5385 21.8189 74.8332 22.0484 74.6598C22.257 74.4691 21.2974 73.4117 20.171 72.597C18.836 71.6436 17.2507 69.7368 16.0409 67.674C15.3734 66.5299 15.1022 65.7326 14.7059 63.9298C14.4555 62.6644 13.9132 60.3935 13.5377 58.9028C13.1623 57.3947 12.9328 56.1119 12.9954 56.0426C13.2874 55.8172 14.5181 56.4933 16.2286 57.8107C18.69 59.6828 18.836 59.2841 16.6875 56.5106C13.7672 52.749 12.4948 49.9235 12.4948 47.2366C12.4948 44.6885 13.5586 40.3722 14.6433 38.6041C15.9574 36.4373 19.5452 31.6009 19.733 31.7569C19.7747 31.8089 19.8998 33.5597 20.0041 35.6572ZM26.7 63.8778C27.8681 66.5473 29.0571 69.3208 29.3491 70.0315C29.6203 70.7422 30.2878 71.9903 30.7884 72.7877C31.3099 73.5851 32.1026 74.9198 32.5198 75.7519C33.7713 78.1267 39.3408 86.2219 41.4059 88.6661C42.3863 89.8275 43.1789 91.0409 43.1789 91.4049C43.1789 91.7516 42.4905 92.2197 42.1985 92.081C42.0525 92.0117 41.531 91.2489 41.0304 90.3995C40.5089 89.5328 38.9445 87.158 37.5469 85.1125C32.7909 78.0921 28.7859 71.0196 26.1785 64.9005C24.6349 61.2949 23.7588 58.3134 24.3846 58.8508C24.4889 58.9548 25.5319 61.2083 26.7 63.8778ZM11.118 62.3523C11.2849 62.6297 11.8064 64.1205 12.2862 65.6979C14.6433 73.5504 17.3967 79.9122 21.6938 87.4527C22.2987 88.4927 23.1956 90.1395 23.7171 91.0929C24.8852 93.2944 26.9503 95.8772 32.8535 102.447C35.5235 105.429 37.4843 107.751 37.3383 107.786C36.5039 108.029 27.8055 99.4828 24.5723 95.2532C21.1514 90.7809 18.1477 86.1699 16.1452 82.3217C15.2899 80.6749 14.4973 79.2361 14.3721 79.1321C13.9966 78.8548 14.3304 80.0855 15.1648 82.1657C18.0851 89.4808 23.884 97.7667 31.7063 105.827C35.3358 109.571 36.1493 110.594 35.899 111.166C35.7321 111.565 35.2732 111.166 31.0388 106.867C27.6804 103.47 26.7834 102.672 26.5748 102.828C26.1368 103.21 28.6816 106.33 32.3946 109.918C33.9173 111.409 35.3358 112.9 35.5235 113.229C35.7113 113.558 36.045 114.616 36.2745 115.569C36.7542 117.632 37.1088 118.637 38.6733 122.191C39.3199 123.647 39.8414 124.965 39.8414 125.086C39.8414 125.623 39.007 125.259 37.234 123.976C34.7934 122.208 31.2473 119.105 30.8093 118.36C30.413 117.667 30.559 117.493 31.7271 117.372C33.3541 117.181 32.9995 116.765 30.7884 116.297C28.8068 115.881 25.0313 113.454 23.3834 111.548L22.7159 110.768H24.1969C25.0313 110.768 25.9908 110.664 26.4288 110.508C27.138 110.265 27.1589 110.23 26.8252 109.918C26.6374 109.745 25.803 109.381 24.9687 109.121C24.1552 108.861 23.2165 108.497 22.9245 108.323C22.6324 108.15 22.1318 107.959 21.8189 107.89C20.5465 107.63 18.252 105.169 15.4777 101.13C14.0175 98.9801 14.0384 98.8414 15.7905 99.5868C17.5427 100.332 18.7109 100.523 18.8986 100.124C19.0863 99.7428 18.69 99.3961 17.0838 98.5294C15.3108 97.5934 13.1414 95.9119 12.3279 94.8372C10.4714 92.445 7.32164 84.7312 7.30078 82.547C7.30078 82.2523 7.36336 81.9923 7.46766 81.9923C7.55109 81.9923 8.1143 82.3043 8.71922 82.6684C9.74133 83.3097 11.1806 83.8471 11.3892 83.6911C11.4309 83.6391 11.2223 83.3271 10.8886 82.9977C9.36586 81.4029 8.71922 80.4149 7.9057 78.3521C7.15477 76.4626 7.00875 75.9252 6.92531 74.2438C6.71672 70.2049 8.30203 64.1725 10.0542 62.3177C10.5757 61.763 10.7634 61.763 11.118 62.3523ZM7.17563 91.2663C9.94992 97.4373 13.058 102.88 15.7697 106.33C20.9637 112.917 26.2828 118.221 33.2707 123.768C37.234 126.923 38.6316 127.911 41.2598 129.471C44.0341 131.118 45.1397 132.158 44.4513 132.505C44.2219 132.626 41.239 130.997 38.4855 129.246C37.3383 128.518 35.7947 127.547 35.0438 127.114C32.7909 125.762 26.8043 120.891 24.0926 118.221C20.2753 114.442 17.0838 110.958 14.8936 108.202C13.8089 106.85 12.8494 105.741 12.7659 105.741C12.3696 105.741 12.1402 106.139 12.307 106.59C12.9745 108.549 18.2102 115.101 19.1072 115.101C19.2741 115.101 19.6078 115.465 19.8373 115.916C20.6508 117.511 23.0705 119.92 27.9098 124.011C31.8731 127.339 34.6474 129.385 37.6512 131.222C40.342 132.852 40.8844 133.285 40.8844 133.77C40.8844 134.29 40.3629 134.29 39.4034 133.753C39.007 133.528 38.2561 133.164 37.7346 132.973C37.234 132.765 35.9824 132.054 34.9395 131.378C30.5173 128.483 29.3491 127.755 29.078 127.755C27.7013 127.755 31.9357 131.413 36.6082 134.256C39.6537 136.111 39.5285 135.937 40.05 139.439C40.1752 140.288 40.4672 141.276 40.6966 141.64C40.9052 142.004 41.0095 142.334 40.9052 142.386C40.488 142.611 37.4426 141.363 36.0659 140.427L35.5652 140.08L36.3579 139.421C36.7751 139.057 37.1297 138.659 37.1297 138.537C37.1297 138.191 36.1702 137.983 34.6683 137.983C32.2069 137.965 31.0805 137.567 28.5982 135.764L27.6595 135.088L28.932 134.533C29.6412 134.221 30.3713 133.822 30.559 133.649C30.8927 133.354 30.8719 133.302 30.267 133.042C29.9123 132.904 28.9737 132.713 28.2019 132.626C26.7209 132.47 26.1785 132.297 24.6141 131.413C24.0926 131.118 23.5085 130.876 23.3208 130.876C22.403 130.876 19.8998 128.379 18.8986 126.473C18.6066 125.918 18.3562 125.433 18.3562 125.415C18.3562 125.381 19.2741 125.398 20.4005 125.45C23.884 125.589 23.7588 124.947 20.0459 123.751C18.836 123.352 17.2716 122.798 16.5832 122.503C13.6837 121.29 9.78305 117.077 8.30203 113.541C7.92656 112.657 7.30078 110.456 7.30078 110.04C7.30078 109.953 7.98914 110.369 8.82352 110.976C10.7843 112.432 11.2432 112.674 11.9316 112.674C12.3487 112.674 12.5156 112.588 12.5156 112.362C12.5156 111.946 12.2236 111.652 10.9512 110.854C9.07383 109.658 8.32289 108.965 7.67625 107.907C7.32164 107.335 6.48727 106.053 5.81977 105.082C5.13141 104.094 4.44305 102.88 4.25531 102.395C4.06758 101.892 3.71297 101.026 3.46266 100.454C3.06633 99.5002 3.02461 99.0668 3.02461 95.0799V90.7462L3.73383 89.6195C4.65164 88.1287 5.2357 87.4873 5.4443 87.6607C5.52773 87.73 6.32039 89.3595 7.17563 91.2663ZM50.6883 93.5198C53.3374 94.1091 55.778 95.4959 56.8627 97.0387C58.0099 98.6681 60.2419 100.87 63.7045 103.747C67.7513 107.093 71.4642 109.728 76.0741 112.518C79.0153 114.286 80.1 115.084 80.1 115.465C80.1 115.552 79.7454 115.621 79.3282 115.621C77.8472 115.621 74.614 113.905 69.1905 110.282C66.312 108.341 65.2064 107.647 64.9978 107.647C64.7266 107.647 64.8935 108.635 65.269 109.138C66.2285 110.438 69.3783 112.674 73.6336 115.101C77.3674 117.216 78.0766 117.788 77.3883 118.135C77.0337 118.308 74.5097 117.095 71.652 115.361C65.7488 111.808 63.6211 110.681 63.6211 111.166C63.6211 112.05 72.528 118.464 75.5527 119.764C76.6373 120.232 76.6582 120.267 76.7208 121.064L76.7834 121.896L74.9477 121.064C73.9465 120.614 70.8384 119.192 68.0641 117.927C65.269 116.661 62.9536 115.621 62.891 115.621C62.8284 115.621 62.7867 115.76 62.7867 115.933C62.7867 116.609 65.123 118.048 71.4434 121.238C75.1772 123.127 75.657 123.439 76.0533 124.236C76.4496 125.017 76.4288 126.005 76.0116 126.143C74.8852 126.49 69.7538 124.306 64.0383 121.03C61.5977 119.626 60.5965 118.967 57.6553 116.748C56.3829 115.795 54.6724 114.529 53.8589 113.922C51.4184 112.137 48.2895 107.89 46.9545 104.579C46.0366 102.326 45.6612 100.731 45.536 98.4601C45.3691 95.4959 45.9115 93.8664 47.2256 93.4331C47.914 93.2077 49.4159 93.2424 50.6883 93.5198ZM46.6207 111.08C47.7471 111.582 48.0391 111.808 49.8956 113.628C52.1067 115.795 54.9853 118.117 57.4676 119.695C61.6395 122.399 69.712 126.663 73.425 128.137C74.4054 128.535 75.3649 128.969 75.5735 129.107C76.0324 129.437 76.0533 130.182 75.5944 130.182C74.9895 130.182 66.0408 126.403 63.4751 125.069C60.9302 123.751 59.8455 123.422 59.6995 123.959C59.6787 124.115 59.8664 124.479 60.1584 124.757C60.8885 125.467 66.7709 128.691 70.0875 130.2C72.9244 131.482 73.9673 132.124 73.7379 132.436C73.6753 132.54 73.3624 132.609 73.0913 132.609C72.3195 132.609 67.2298 130.997 64.4763 129.888C61.264 128.587 59.7413 128.553 61.0137 129.801C61.848 130.633 64.372 131.846 68.0641 133.216C69.9206 133.892 71.7354 134.585 72.1109 134.741C72.8827 135.088 73.425 135.66 73.425 136.163C73.425 136.804 73.1121 136.977 72.0274 136.977C70.901 136.96 62.0358 135.296 59.9916 134.689C58.2811 134.204 55.6945 133.025 52.4613 131.257C50.9803 130.442 49.3116 129.575 48.7901 129.333C48.2477 129.073 46.725 128.015 45.4109 126.941C43.617 125.502 42.9703 124.861 42.866 124.427C42.7826 124.115 42.5531 123.664 42.3654 123.422C41.4893 122.364 39.7788 118.585 39.3199 116.731C38.5481 113.645 39.2991 111.253 41.1555 110.768C41.531 110.681 42.72 110.629 43.8047 110.664C45.3483 110.698 45.9741 110.802 46.6207 111.08ZM12.5573 123.716C12.8494 123.994 13.6837 124.947 14.393 125.849C19.3366 132.037 25.2816 137.064 31.9357 140.67C33.1247 141.311 35.2732 142.49 36.7125 143.27C39.7163 144.917 41.4684 145.679 42.8869 145.974C44.1384 146.234 45.2023 146.667 46.7876 147.551C48.1226 148.297 48.3938 148.834 47.3508 148.643C43.5544 147.95 30.6424 141.952 26.2828 138.849C24.322 137.445 23.6963 137.341 24.4263 138.537C25.5736 140.41 30.0584 143.79 34.9812 146.494C36.2327 147.187 39.2156 148.539 41.6145 149.528C44.0341 150.498 46.1827 151.434 46.4121 151.59C46.8084 151.868 46.7667 151.868 45.7446 151.781C45.1397 151.729 43.8881 151.504 42.9703 151.244C41.1555 150.776 40.1752 150.689 40.3003 151.001C40.342 151.105 41.3641 151.764 42.5531 152.44C43.7421 153.116 44.7434 153.774 44.8059 153.896C44.8477 154.017 44.6182 154.156 44.2427 154.208C43.8881 154.277 43.5961 154.381 43.5961 154.468C43.5961 154.763 46.7876 156.357 47.3716 156.357C47.8097 156.357 48.6023 157.085 48.6023 157.484C48.6023 158.212 47.163 159.46 46.3078 159.46C46.1409 159.478 45.2023 159.2 44.2219 158.853C43.2415 158.507 40.9261 157.779 39.0488 157.224C34.9603 155.993 33.4376 155.335 32.332 154.346C31.3934 153.497 31.2682 152.977 31.9774 152.786C32.937 152.544 33.5419 151.712 32.9578 151.417C32.8327 151.365 31.8314 151.226 30.7259 151.14C27.4301 150.862 25.2816 150.117 23.2791 148.574C21.3391 147.066 17.3133 142.888 17.3133 142.386C17.3133 142.022 17.647 142.091 19.6287 142.854C21.1305 143.426 21.5477 143.512 21.9023 143.356C22.1318 143.252 22.3195 143.079 22.3195 142.975C22.3195 142.854 20.8177 141.519 18.9612 139.994C15.8323 137.376 15.5611 137.099 14.7267 135.643C13.058 132.73 11.9733 129.714 11.6812 127.287C11.4935 125.623 11.5978 123.248 11.8898 123.248C11.9524 123.248 12.2653 123.456 12.5573 123.716ZM54.9645 135.365C61.4726 137.705 64.977 138.572 72.1734 139.578C73.717 139.803 73.7379 139.82 73.7379 140.323V140.843L72.0691 140.895C69.9623 140.964 66.2077 140.548 63.037 139.89C60.221 139.3 60.075 139.283 60.075 139.612C60.075 140.462 65.0813 141.952 70.1918 142.646C74.0091 143.166 75.9281 143.807 75.9281 144.587C75.9281 145.211 75.052 145.315 70.7133 145.194C66.3328 145.09 64.1009 144.813 62.9745 144.24C62.2235 143.859 61.5352 143.772 61.5352 144.05C61.5352 144.553 64.4138 145.939 66.9795 146.667C68.1476 146.979 69.0028 147.049 73.5293 147.17C76.4079 147.257 78.765 147.326 78.8067 147.326C78.8276 147.343 78.8484 147.482 78.8484 147.655C78.8484 148.002 78.4104 148.383 77.7012 148.695C76.8251 149.059 72.9452 149.267 66.312 149.267C58.9069 149.267 58.4271 149.215 55.0479 148.245C48.7066 146.425 44.7434 143.391 43.6795 139.595C43.2206 137.913 43.7004 135.851 44.7434 135.036C45.6403 134.342 47.8723 133.805 49.541 133.874C50.8134 133.944 51.5018 134.134 54.9645 135.365ZM77.5969 151.174C77.5969 151.469 76.4079 152.37 76.0324 152.37C75.8447 152.37 75.1355 152.648 74.4888 152.977C73.4459 153.514 73.0704 153.601 71.193 153.757C69.1905 153.913 67.3758 154.329 67.3758 154.624C67.3758 155.092 74.0716 154.936 76.6999 154.433C77.3048 154.312 77.868 154.277 77.9515 154.346C78.2227 154.572 77.1797 155.092 74.6348 156.011C71.047 157.328 70.8802 157.675 73.8213 157.623C75.2398 157.605 75.9698 157.484 77.3674 157.068C78.3478 156.773 79.203 156.531 79.3073 156.531C79.6411 156.531 79.4742 157.12 78.9736 157.657C77.6177 159.131 73.6962 161.072 66.5414 163.811C61.8689 165.597 60.4505 166.394 57.4259 168.942C56.0283 170.121 54.7559 171.092 54.6098 171.092C53.9006 171.092 52.1067 170.52 51.5227 170.104C50.2294 169.219 49.0613 166.446 49.2907 164.851C49.4784 163.499 50.4171 161.107 51.3349 159.651C52.9411 157.068 54.5473 155.803 58.0934 154.312C60.1584 153.462 61.9732 153.081 66.0825 152.717C70.0875 152.336 73.1121 151.902 75.5109 151.33C77.0963 150.949 77.5969 150.914 77.5969 151.174ZM47.3508 154.381C47.3508 154.416 47.163 154.45 46.9127 154.45C46.6833 154.45 46.5373 154.381 46.6207 154.277C46.725 154.138 47.3508 154.225 47.3508 154.381ZM50.584 154.797C50.7509 155.023 50.1668 155.213 49.7288 155.075C49.3116 154.936 49.541 154.624 50.0625 154.624C50.2711 154.624 50.5214 154.711 50.584 154.797ZM82.2902 159.651C82.3528 159.738 82.3111 159.963 82.2068 160.154C81.9148 160.604 78.911 162.58 77.3048 163.395C75.0729 164.522 73.9465 165.631 74.4888 166.169C74.7809 166.481 75.1355 166.342 78.6607 164.678C80.2669 163.898 81.6436 163.291 81.6853 163.343C81.7688 163.412 78.9736 165.683 77.3048 166.879C76.2202 167.659 76.1993 167.971 77.2214 167.971C78.4104 167.971 82.8952 165.718 84.0007 164.574C84.4805 164.088 84.7099 163.967 85.0437 164.054C86.4621 164.435 85.3357 165.77 79.7871 170.312C77.0128 172.582 75.0729 174.351 74.5723 174.992C73.6127 176.275 71.5268 178.649 69.5034 180.764C67.8138 182.532 66.6457 183.226 65.415 183.226C64.0383 183.226 61.8063 182.706 60.9511 182.186C58.8026 180.903 58.1768 177.609 59.2615 173.31C59.5952 171.958 60.6382 170.277 61.6186 169.462C62.8284 168.457 65.3524 167.087 66.7083 166.723C68.523 166.221 73.5084 163.846 77.9932 161.332C79.5577 160.466 81.6645 159.478 81.9773 159.478C82.0816 159.478 82.2277 159.547 82.2902 159.651ZM87.4008 167.746C87.3799 168.023 86.1284 169.254 83.5627 171.542C80.246 174.489 80.1626 174.749 82.8952 173.57C83.7713 173.172 85.0228 172.409 85.9615 171.664C88.7566 169.445 88.1517 170.312 84.8351 173.276C82.4363 175.425 82.1234 176.24 84.0216 175.425C84.6265 175.165 86.1492 174.038 88.0891 172.409C92.0524 169.046 92.0941 169.341 88.3812 174.507C85.3774 178.684 84.0633 181.128 81.8522 186.571C80.7466 189.31 79.662 191.737 79.4534 191.962C79.057 192.396 75.6778 193.453 74.7391 193.453C74.468 193.453 73.7588 193.054 73.0287 192.482C70.3378 190.42 69.4826 187.49 70.7133 184.543C71.3182 183.07 73.8213 179.291 75.1563 177.817C79.0153 173.553 87.4425 166.619 87.4008 167.746ZM90.8426 176.587C89.2573 179.308 88.0266 181.666 88.0266 182.03C88.0266 182.463 88.8192 181.631 90.6966 179.239C92.8242 176.535 94.5347 174.732 94.6598 175.061C94.7016 175.165 94.1801 176.015 93.4917 176.951C91.6978 179.343 90.3211 182.151 90.3211 183.364C90.3211 183.78 90.342 183.78 90.7174 183.503C90.9469 183.33 91.7604 182.359 92.5322 181.336C94.7433 178.407 96.5998 176.431 96.8918 176.673C96.9544 176.708 96.4746 177.869 95.828 179.256C93.4917 184.318 93.0745 185.566 92.4279 189.553C91.9064 192.638 91.6352 193.748 91.218 194.285C90.3628 195.429 88.11 195.707 86.2327 194.927C84.2302 194.06 84.105 193.921 83.7295 191.858C83.4166 190.108 83.4375 189.969 83.8338 188.565C84.3553 186.745 86.2744 182.238 87.5259 179.88C88.3395 178.355 90.9469 174.801 91.969 173.813C92.7199 173.068 92.3445 174.038 90.8426 176.587ZM100.959 179.308C100.605 179.69 100.292 179.464 100.563 179.031C100.73 178.788 100.855 178.736 101.022 178.875C101.168 178.996 101.147 179.135 100.959 179.308Z" fill="#54E6EF"/>
<path d="M54.2344 84.367C54.2344 85.6324 54.8393 87.5739 55.6945 89.0127C57.5927 92.2195 60.6591 94.6117 60.8677 93.0689C60.9094 92.7569 60.6382 92.3236 59.8455 91.5088C58.6148 90.2261 57.6762 88.926 56.0491 86.2391C55.4234 85.1817 54.7559 84.1763 54.5681 83.9857C54.2552 83.6563 54.2552 83.6736 54.2344 84.367Z" fill="#54E6EF"/>
<path d="M81.3307 120.752C81.1847 120.908 81.0178 121.515 80.9761 122.122C80.8927 123.127 80.9344 123.248 81.5184 123.786C82.0399 124.271 82.1859 124.323 82.4571 124.132C82.9577 123.803 83.4792 122.52 83.3958 121.844C83.3541 121.411 83.1663 121.168 82.624 120.873C81.7896 120.405 81.6853 120.388 81.3307 120.752Z" fill="#54E6EF"/>
<path d="M79.9361 136.271C78.6845 137.016 78.6845 138.68 79.9569 139.218C80.7705 139.564 81.0625 139.46 81.5631 138.611C82.1889 137.606 82.3349 136.635 81.8969 136.288C81.4588 135.907 80.5619 135.907 79.9361 136.271Z" fill="#54E6EF"/>
<path d="M82.8117 151.244C82.4988 151.573 82.6657 152.838 83.1246 153.584C83.5209 154.225 83.6461 154.225 84.2927 153.653C85.2523 152.804 84.7516 150.984 83.5418 150.984C83.2706 150.984 82.9577 151.105 82.8117 151.244Z" fill="#54E6EF"/>
<path d="M91.5101 163.239C91.0095 163.724 90.8634 164.4 91.2389 164.661C92.0524 165.233 93.2414 164.262 92.8242 163.378C92.5948 162.875 91.9898 162.806 91.5101 163.239Z" fill="#54E6EF"/>
<path d="M100.688 171.56C100.417 171.768 100.542 172.426 100.876 172.652C101.251 172.929 102.357 172.946 102.649 172.704C102.962 172.444 101.877 171.438 101.293 171.438C101.022 171.438 100.751 171.49 100.688 171.56Z" fill="#54E6EF"/>
<path d="M96.9752 193.748C95.5359 194.979 95.1188 195.447 95.3691 195.499C96.3077 195.655 99.4992 193.366 99.4992 192.517C99.4992 192.257 99.3741 192.066 99.228 192.066C99.082 192.066 98.0599 192.829 96.9752 193.748Z" fill="#54E6EF"/>
<path d="M31.2891 111.964C31.2891 112.466 32.8118 114.234 34.1259 115.274C36.2327 116.921 35.6487 115.552 33.1664 112.934C31.9357 111.652 31.2891 111.322 31.2891 111.964Z" fill="#54E6EF"/>
<path d="M48.957 98.5293C48.6649 99.136 48.5815 101.806 48.7901 103.418C49.0404 105.428 49.4993 106.451 50.7509 107.803C51.6061 108.722 54.7559 111.114 55.0896 111.114C55.4025 111.114 55.2982 110.438 54.9227 109.935C54.735 109.675 54.0466 108.843 53.3791 108.081C51.3141 105.636 50.6674 104.215 50.2711 101.164C50.1459 100.211 49.9373 99.1533 49.8331 98.8413C49.6036 98.2693 49.1447 98.0959 48.957 98.5293Z" fill="#54E6EF"/>
<path d="M51.5227 101.476C51.3558 101.667 51.3558 101.91 51.5018 102.412C51.7312 103.088 53.1705 105.082 53.5877 105.29C54.2552 105.636 53.9423 104.076 52.9828 102.395C52.4405 101.459 51.8981 101.112 51.5227 101.476Z" fill="#54E6EF"/>
<path d="M42.0316 115.101C41.4893 115.604 41.385 117.372 41.8231 118.984C42.3863 121.133 43.7421 123.162 45.8072 124.964C47.0588 126.074 47.8514 126.611 48.6232 126.889C49.5619 127.218 49.7496 127.235 49.9999 127.027C50.2502 126.802 50.1042 126.611 48.957 125.658C47.4968 124.427 44.6599 121.341 43.9924 120.267C43.6587 119.729 43.5335 119.036 43.4084 117.355C43.3249 116.141 43.1789 115.066 43.0955 114.945C42.866 114.65 42.4488 114.72 42.0316 115.101Z" fill="#54E6EF"/>
<path d="M46.4121 120.249C47.0587 121.463 47.8514 122.347 48.5189 122.59C49.1447 122.832 49.3116 122.694 49.1447 122.156C49.0195 121.723 46.4121 119.261 46.0784 119.261C45.9741 119.261 46.1409 119.712 46.4121 120.249Z" fill="#54E6EF"/>
<path d="M45.4734 139.231C45.4734 139.733 45.6612 140.461 45.8698 140.843C46.4121 141.866 48.7484 144.188 49.7079 144.691C50.6466 145.176 54.881 146.13 56.1326 146.13C57.6762 146.13 57.113 145.714 53.4209 144.119C52.1067 143.564 50.7509 142.854 50.3963 142.559C50.0416 142.264 49.4784 141.883 49.1447 141.692C48.8109 141.519 47.8514 140.687 46.9962 139.837L45.4734 138.312V139.231Z" fill="#54E6EF"/>
<path d="M49.6453 139.543C49.6453 139.629 49.8122 139.855 50.0208 140.011C50.2502 140.184 50.8552 140.67 51.3766 141.068C51.919 141.484 52.357 141.9 52.357 141.987C52.357 142.23 53.2748 142.178 53.692 141.918C54.2344 141.588 53.8798 141.12 52.4822 140.34C50.876 139.456 49.6453 139.109 49.6453 139.543Z" fill="#54E6EF"/>
<path d="M52.9202 163.152C52.7325 163.586 53.3166 164.348 54.3178 164.99C55.5485 165.787 55.6945 164.626 54.4638 163.62C53.6503 162.927 53.108 162.771 52.9202 163.152Z" fill="#54E6EF"/>
<path d="M51.1055 164.869C51.1055 166.741 54.0258 169.098 55.0688 168.058C55.4442 167.677 55.1313 167.157 54.1301 166.585C53.6295 166.307 52.7534 165.631 52.1693 165.077L51.1055 164.088V164.869Z" fill="#54E6EF"/>
<path d="M60.2836 174.472C59.9707 175.148 60.3045 178.077 60.8051 178.944C61.264 179.759 62.4947 180.92 63.2039 181.232C63.7254 181.458 63.9131 181.458 64.9144 181.215C65.5193 181.059 66.3954 180.782 66.8334 180.591C67.6261 180.262 67.647 180.227 67.2715 180.002C67.0003 179.828 66.2494 179.759 64.8309 179.759C62.9119 179.759 62.7241 179.724 62.2444 179.325C61.4309 178.649 61.0762 177.731 60.9511 176.032C60.8468 174.16 60.6382 173.709 60.2836 174.472Z" fill="#54E6EF"/>
<path d="M63.3499 176.223C63.0579 176.465 63.2248 177.419 63.6002 177.8C63.8297 178.025 64.0383 178.199 64.1009 178.199C64.3095 178.199 64.4138 177.384 64.2886 176.812C64.1426 176.24 63.6837 175.963 63.3499 176.223Z" fill="#54E6EF"/>
<path d="M73.6545 186.502C73.3624 186.658 74.7809 187.819 75.5944 188.079C76.9294 188.495 77.1797 187.802 75.9698 187.126C75.0312 186.606 73.9882 186.329 73.6545 186.502Z" fill="#54E6EF"/>
<path d="M72.1734 187.594C72.1734 188.131 73.4459 190.333 74.0091 190.732C75.4692 191.824 78.4313 191.234 78.4313 189.865C78.4313 189.449 78.2435 189.38 76.6582 189.206C75.4901 189.067 74.614 188.755 73.8422 188.166C73.5502 187.958 73.0704 187.646 72.7575 187.473C72.1734 187.178 72.1734 187.178 72.1734 187.594Z" fill="#54E6EF"/>
<path d="M86.2744 188.53C85.732 188.963 85.8781 189.397 86.6499 189.709C87.4425 190.021 88.1934 190.056 88.6524 189.813C88.9027 189.692 88.8818 189.587 88.4438 189.206C87.9849 188.79 86.9836 188.253 86.6916 188.253C86.6499 188.253 86.4413 188.374 86.2744 188.53Z" fill="#54E6EF"/>
<path d="M85.0228 191.581C85.3566 192.5 85.7946 192.985 86.629 193.297C87.6511 193.678 88.0266 193.696 88.7358 193.436C89.299 193.21 89.5284 192.881 89.3616 192.517C89.2781 192.326 85.5652 191.182 85.0437 191.2C84.9394 191.2 84.9394 191.373 85.0228 191.581Z" fill="#54E6EF"/>
</g>
<defs>
<clipPath id="clip0_1_53">
<rect width="267px" height="199px" />
</clipPath>
</defs>
</svg>
